<svg xmlns="http://www.w3.org/2000/svg" xmlns:xlink="http://www.w3.org/1999/xlink" version="1.1" class="marks" width="597" height="401" viewBox="0 0 597 401"><rect width="597" height="401" fill="white"/><g fill="none" stroke-miterlimit="10" transform="translate(58,10)"><g class="mark-group role-frame root" role="graphics-object" aria-roledescription="group mark container"><g transform="translate(0,0)"><path class="background" aria-hidden="true" d="M0.5,0.5h340v200h-340Z" stroke="#ddd" stroke-opacity="0"/><g><g class="mark-group role-axis" role="graphics-symbol" aria-roledescription="axis" aria-label="X-axis titled 'account' for a discrete scale with 17 values: Expenses:Financial:Commissions, Expenses:Financial:Fees, Expenses:Food:Alcohol, Expenses:Food:Coffee, Expenses:Food:Groceries, ending with Expenses:Transport:Tram"><g transform="translate(0.5,200.5)"><path class="background" aria-hidden="true" d="M0,0h0v0h0Z" pointer-events="none"/><g><g class="mark-rule role-axis-tick" pointer-events="none"><line transform="translate(10,0)" x2="0" y2="5" stroke="#000000" stroke-width="1" opacity="1"/><line transform="translate(30,0)" x2="0" y2="5" stroke="#000000" stroke-width="1" opacity="1"/><line transform="translate(50,0)" x2="0" y2="5" stroke="#000000" stroke-width="1" opacity="1"/><line transform="translate(70,0)" x2="0" y2="5" stroke="#000000" stroke-width="1" opacity="1"/><line transform="translate(90,0)" x2="0" y2="5" stroke="#000000" stroke-width="1" opacity="1"/><line transform="translate(110,0)" x2="0" y2="5" stroke="#000000" stroke-width="1" opacity="1"/><line transform="translate(130,0)" x2="0" y2="5" stroke="#000000" stroke-width="1" opacity="1"/><line transform="translate(150,0)" x2="0" y2="5" stroke="#000000" stroke-width="1" opacity="1"/><line transform="translate(170,0)" x2="0" y2="5" stroke="#000000" stroke-width="1" opacity="1"/><line transform="translate(190,0)" x2="0" y2="5" stroke="#000000" stroke-width="1" opacity="1"/><line transform="translate(210,0)" x2="0" y2="5" stroke="#000000" stroke-width="1" opacity="1"/><line transform="translate(230,0)" x2="0" y2="5" stroke="#000000" stroke-width="1" opacity="1"/><line transform="translate(250,0)" x2="0" y2="5" stroke="#000000" stroke-width="1" opacity="1"/><line transform="translate(270,0)" x2="0" y2="5" stroke="#000000" stroke-width="1" opacity="1"/><line transform="translate(290,0)" x2="0" y2="5" stroke="#000000" stroke-width="1" opacity="1"/><line transform="translate(310,0)" x2="0" y2="5" stroke="#000000" stroke-width="1" opacity="1"/><line transform="translate(330,0)" x2="0" y2="5" stroke="#000000" stroke-width="1" opacity="1"/></g><g class="mark-text role-axis-label" pointer-events="none"><text text-anchor="end" transform="translate(9.5,7) rotate(270) translate(0,3)" font-family="Arial" font-size="10px" fill="#000" opacity="1">Expenses:Financial:Commissions</text><text text-anchor="end" transform="translate(29.5,7) rotate(270) translate(0,3)" font-family="Arial" font-size="10px" fill="#000" opacity="1">Expenses:Financial:Fees</text><text text-anchor="end" transform="translate(49.5,7) rotate(270) translate(0,3)" font-family="Arial" font-size="10px" fill="#000" opacity="1">Expenses:Food:Alcohol</text><text text-anchor="end" transform="translate(69.5,7) rotate(270) translate(0,3)" font-family="Arial" font-size="10px" fill="#000" opacity="1">Expenses:Food:Coffee</text><text text-anchor="end" transform="translate(89.5,7) rotate(270) translate(0,3)" font-family="Arial" font-size="10px" fill="#000" opacity="1">Expenses:Food:Groceries</text><text text-anchor="end" transform="translate(109.5,7) rotate(270) translate(0,3)" font-family="Arial" font-size="10px" fill="#000" opacity="1">Expenses:Food:Restaurant</text><text text-anchor="end" transform="translate(129.5,7) rotate(270) translate(0,3)" font-family="Arial" font-size="10px" fill="#000" opacity="1">Expenses:Health:Dental:Insurance</text><text text-anchor="end" transform="translate(149.5,7) rotate(270) translate(0,3)" font-family="Arial" font-size="10px" fill="#000" opacity="1">Expenses:Health:Life:GroupTermLife</text><text text-anchor="end" transform="translate(169.5,7) rotate(270) translate(0,3)" font-family="Arial" font-size="10px" fill="#000" opacity="1">Expenses:Health:Medical:Insurance</text><text text-anchor="end" transform="translate(189.5,7) rotate(270) translate(0,3)" font-family="Arial" font-size="10px" fill="#000" opacity="1">Expenses:Health:Vision:Insurance</text><text text-anchor="end" transform="translate(209.5,7) rotate(270) translate(0,3)" font-family="Arial" font-size="10px" fill="#000" opacity="1">Expenses:Home:Electricity</text><text text-anchor="end" transform="translate(229.5,7) rotate(270) translate(0,3)" font-family="Arial" font-size="10px" fill="#000" opacity="1">Expenses:Home:Internet</text><text text-anchor="end" transform="translate(249.5,7) rotate(270) translate(0,3)" font-family="Arial" font-size="10px" fill="#000" opacity="1">Expenses:Home:Rent</text><text text-anchor="end" transform="translate(269.5,7) rotate(270) translate(0,3)" font-family="Arial" font-size="10px" fill="#000" opacity="1">Expenses:Taxes:Y2012:US</text><text text-anchor="end" transform="translate(289.5,7) rotate(270) translate(0,3)" font-family="Arial" font-size="10px" fill="#000" opacity="1">Expenses:Taxes:Y2013:US</text><text text-anchor="end" transform="translate(309.5,7) rotate(270) translate(0,3)" font-family="Arial" font-size="10px" fill="#000" opacity="1">Expenses:Taxes:Y2014:US</text><text text-anchor="end" transform="translate(329.5,7) rotate(270) translate(0,3)" font-family="Arial" font-size="10px" fill="#000" opacity="1">Expenses:Transport:Tram</text></g><g class="mark-rule role-axis-domain" pointer-events="none"><line transform="translate(0,0)" x2="340" y2="0" stroke="#000000" stroke-width="1" opacity="1"/></g><g class="mark-text role-axis-title" pointer-events="none"><text text-anchor="middle" transform="translate(170,183.41796875)" font-family="Arial" font-size="11px" font-weight="normal" fill="#000" opacity="1">account</text></g></g><path class="foreground" aria-hidden="true" d="" pointer-events="none" display="none"/></g></g><g class="mark-group role-axis" role="graphics-symbol" aria-roledescription="axis" aria-label="Y-axis titled 'balance' for a linear scale with values from 0 to 80,000"><g transform="translate(0.5,0.5)"><path class="background" aria-hidden="true" d="M0,0h0v0h0Z" pointer-events="none"/><g><g class="mark-rule role-axis-tick" pointer-events="none"><line transform="translate(0,150)" x2="-5" y2="0" stroke="#000000" stroke-width="1" opacity="1"/><line transform="translate(0,100)" x2="-5" y2="0" stroke="#000000" stroke-width="1" opacity="1"/><line transform="translate(0,50)" x2="-5" y2="0" stroke="#000000" stroke-width="1" opacity="1"/><line transform="translate(0,200)" x2="-5" y2="0" stroke="#000000" stroke-width="1" opacity="1"/><line transform="translate(0,0)" x2="-5" y2="0" stroke="#000000" stroke-width="1" opacity="1"/></g><g class="mark-text role-axis-label" pointer-events="none"><text text-anchor="end" transform="translate(-7,153)" font-family="Arial" font-size="10px" fill="#000" opacity="1">20,000</text><text text-anchor="end" transform="translate(-7,103)" font-family="Arial" font-size="10px" fill="#000" opacity="1">40,000</text><text text-anchor="end" transform="translate(-7,53)" font-family="Arial" font-size="10px" fill="#000" opacity="1">60,000</text><text text-anchor="end" transform="translate(-7,203)" font-family="Arial" font-size="10px" fill="#000" opacity="1">0</text><text text-anchor="end" transform="translate(-7,3)" font-family="Arial" font-size="10px" fill="#000" opacity="1">80,000</text></g><g class="mark-rule role-axis-domain" pointer-events="none"><line transform="translate(0,200)" x2="0" y2="-200" stroke="#000000" stroke-width="1" opacity="1"/></g><g class="mark-text role-axis-title" pointer-events="none"><text text-anchor="middle" transform="translate(-41.5859375,100) rotate(-90) translate(0,-2)" font-family="Arial" font-size="11px" font-weight="normal" fill="#000" opacity="1">balance</text></g></g><path class="foreground" aria-hidden="true" d="" pointer-events="none" display="none"/></g></g><g class="mark-rect role-mark marks" clip-path="url(#clip1)" role="graphics-object" aria-roledescription="rect mark container"><path aria-label="account: Expenses:Financial:Commissions; balance: 340.1" role="graphics-symbol" aria-roledescription="bar" d="M1,199.14974999999998h18v0.8502500000000168h-18Z" fill="#4c78a8"/><path aria-label="account: Expenses:Financial:Fees; balance: 136" role="graphics-symbol" aria-roledescription="bar" d="M21,199.66h18v0.3400000000000034h-18Z" fill="#f58518"/><path aria-label="account: Expenses:Food:Alcohol; balance: 22.35" role="graphics-symbol" aria-roledescription="bar" d="M41,199.944125h18v0.05587499999998613h-18Z" fill="#e45756"/><path aria-label="account: Expenses:Food:Coffee; balance: 83.72" role="graphics-symbol" aria-roledescription="bar" d="M61,199.79070000000002h18v0.20929999999998472h-18Z" fill="#72b7b2"/><path aria-label="account: Expenses:Food:Groceries; balance: 6014.38" role="graphics-symbol" aria-roledescription="bar" d="M81,184.96405000000001h18v15.035949999999985h-18Z" fill="#54a24b"/><path aria-label="account: Expenses:Food:Restaurant; balance: 12968.53" role="graphics-symbol" aria-roledescription="bar" d="M101,167.57867499999998h18v32.421325000000024h-18Z" fill="#eeca3b"/><path aria-label="account: Expenses:Health:Dental:Insurance; balance: 211.7" role="graphics-symbol" aria-roledescription="bar" d="M121,199.47075h18v0.5292499999999905h-18Z" fill="#b279a2"/><path aria-label="account: Expenses:Health:Life:GroupTermLife; balance: 1775.36" role="graphics-symbol" aria-roledescription="bar" d="M141,195.5616h18v4.4384000000000015h-18Z" fill="#ff9da6"/><path aria-label="account: Expenses:Health:Medical:Insurance; balance: 1998.74" role="graphics-symbol" aria-roledescription="bar" d="M161,195.00315h18v4.996849999999995h-18Z" fill="#9d755d"/><path aria-label="account: Expenses:Health:Vision:Insurance; balance: 3087.9" role="graphics-symbol" aria-roledescription="bar" d="M181,192.28025h18v7.719750000000005h-18Z" fill="#bab0ac"/><path aria-label="account: Expenses:Home:Electricity; balance: 2145" role="graphics-symbol" aria-roledescription="bar" d="M201,194.6375h18v5.362500000000011h-18Z" fill="#4c78a8"/><path aria-label="account: Expenses:Home:Internet; balance: 2640.8" role="graphics-symbol" aria-roledescription="bar" d="M221,193.398h18v6.602000000000004h-18Z" fill="#f58518"/><path aria-label="account: Expenses:Home:Rent; balance: 79200" role="graphics-symbol" aria-roledescription="bar" d="M241,2.0000000000000018h18v198h-18Z" fill="#e45756"/><path aria-label="account: Expenses:Taxes:Y2012:US; balance: 52394.63" role="graphics-symbol" aria-roledescription="bar" d="M261,69.01342500000001h18v130.986575h-18Z" fill="#72b7b2"/><path aria-label="account: Expenses:Taxes:Y2013:US; balance: 52336.29" role="graphics-symbol" aria-roledescription="bar" d="M281,69.15927499999998h18v130.84072500000002h-18Z" fill="#54a24b"/><path aria-label="account: Expenses:Taxes:Y2014:US; balance: 41836.2" role="graphics-symbol" aria-roledescription="bar" d="M301,95.40950000000001h18v104.59049999999999h-18Z" fill="#eeca3b"/><path aria-label="account: Expenses:Transport:Tram; balance: 3720" role="graphics-symbol" aria-roledescription="bar" d="M321,190.7h18v9.300000000000011h-18Z" fill="#b279a2"/></g><g class="mark-group role-legend" role="graphics-symbol" aria-roledescription="legend" aria-label="Symbol legend titled 'account' for fill color with 17 values: Expenses:Financial:Commissions, Expenses:Financial:Fees, Expenses:Food:Alcohol, Expenses:Food:Coffee, Expenses:Food:Groceries, ending with Expenses:Transport:Tram"><g transform="translate(358,0)"><path class="background" aria-hidden="true" d="M0,0h176v235h-176Z" pointer-events="none"/><g><g class="mark-group role-legend-entry"><g transform="translate(0,16)"><path class="background" aria-hidden="true" d="M0,0h0v0h0Z" pointer-events="none"/><g><g class="mark-group role-scope" role="graphics-object" aria-roledescription="group mark container"><g transform="translate(0,0)"><path class="background" aria-hidden="true" d="M0,0h175.53125v11h-175.53125Z" pointer-events="none" opacity="1"/><g><g class="mark-symbol role-legend-symbol" pointer-events="none"><path transform="translate(6,6)" d="M-5,-5h10v10h-10Z" fill="#4c78a8" stroke-width="1.5" opacity="1"/></g><g class="mark-text role-legend-label" pointer-events="none"><text text-anchor="start" transform="translate(16,9)" font-family="sans-serif" font-size="10px" fill="#000" opacity="1">Expenses:Financial:Commissions</text></g></g><path class="foreground" aria-hidden="true" d="" pointer-events="none" display="none"/></g><g transform="translate(0,13)"><path class="background" aria-hidden="true" d="M0,0h175.53125v11h-175.53125Z" pointer-events="none" opacity="1"/><g><g class="mark-symbol role-legend-symbol" pointer-events="none"><path transform="translate(6,6)" d="M-5,-5h10v10h-10Z" fill="#f58518" stroke-width="1.5" opacity="1"/></g><g class="mark-text role-legend-label" pointer-events="none"><text text-anchor="start" transform="translate(16,9)" font-family="sans-serif" font-size="10px" fill="#000" opacity="1">Expenses:Financial:Fees</text></g></g><path class="foreground" aria-hidden="true" d="" pointer-events="none" display="none"/></g><g transform="translate(0,26)"><path class="background" aria-hidden="true" d="M0,0h175.53125v11h-175.53125Z" pointer-events="none" opacity="1"/><g><g class="mark-symbol role-legend-symbol" pointer-events="none"><path transform="translate(6,6)" d="M-5,-5h10v10h-10Z" fill="#e45756" stroke-width="1.5" opacity="1"/></g><g class="mark-text role-legend-label" pointer-events="none"><text text-anchor="start" transform="translate(16,9)" font-family="sans-serif" font-size="10px" fill="#000" opacity="1">Expenses:Food:Alcohol</text></g></g><path class="foreground" aria-hidden="true" d="" pointer-events="none" display="none"/></g><g transform="translate(0,39)"><path class="background" aria-hidden="true" d="M0,0h175.53125v11h-175.53125Z" pointer-events="none" opacity="1"/><g><g class="mark-symbol role-legend-symbol" pointer-events="none"><path transform="translate(6,6)" d="M-5,-5h10v10h-10Z" fill="#72b7b2" stroke-width="1.5" opacity="1"/></g><g class="mark-text role-legend-label" pointer-events="none"><text text-anchor="start" transform="translate(16,9)" font-family="sans-serif" font-size="10px" fill="#000" opacity="1">Expenses:Food:Coffee</text></g></g><path class="foreground" aria-hidden="true" d="" pointer-events="none" display="none"/></g><g transform="translate(0,52)"><path class="background" aria-hidden="true" d="M0,0h175.53125v11h-175.53125Z" pointer-events="none" opacity="1"/><g><g class="mark-symbol role-legend-symbol" pointer-events="none"><path transform="translate(6,6)" d="M-5,-5h10v10h-10Z" fill="#54a24b" stroke-width="1.5" opacity="1"/></g><g class="mark-text role-legend-label" pointer-events="none"><text text-anchor="start" transform="translate(16,9)" font-family="sans-serif" font-size="10px" fill="#000" opacity="1">Expenses:Food:Groceries</text></g></g><path class="foreground" aria-hidden="true" d="" pointer-events="none" display="none"/></g><g transform="translate(0,65)"><path class="background" aria-hidden="true" d="M0,0h175.53125v11h-175.53125Z" pointer-events="none" opacity="1"/><g><g class="mark-symbol role-legend-symbol" pointer-events="none"><path transform="translate(6,6)" d="M-5,-5h10v10h-10Z" fill="#eeca3b" stroke-width="1.5" opacity="1"/></g><g class="mark-text role-legend-label" pointer-events="none"><text text-anchor="start" transform="translate(16,9)" font-family="sans-serif" font-size="10px" fill="#000" opacity="1">Expenses:Food:Restaurant</text></g></g><path class="foreground" aria-hidden="true" d="" pointer-events="none" display="none"/></g><g transform="translate(0,78)"><path class="background" aria-hidden="true" d="M0,0h175.53125v11h-175.53125Z" pointer-events="none" opacity="1"/><g><g class="mark-symbol role-legend-symbol" pointer-events="none"><path transform="translate(6,6)" d="M-5,-5h10v10h-10Z" fill="#b279a2" stroke-width="1.5" opacity="1"/></g><g class="mark-text role-legend-label" pointer-events="none"><text text-anchor="start" transform="translate(16,9)" font-family="sans-serif" font-size="10px" fill="#000" opacity="1">Expenses:Health:Dental:Insurance</text></g></g><path class="foreground" aria-hidden="true" d="" pointer-events="none" display="none"/></g><g transform="translate(0,91)"><path class="background" aria-hidden="true" d="M0,0h175.53125v11h-175.53125Z" pointer-events="none" opacity="1"/><g><g class="mark-symbol role-legend-symbol" pointer-events="none"><path transform="translate(6,6)" d="M-5,-5h10v10h-10Z" fill="#ff9da6" stroke-width="1.5" opacity="1"/></g><g class="mark-text role-legend-label" pointer-events="none"><text text-anchor="start" transform="translate(16,9)" font-family="sans-serif" font-size="10px" fill="#000" opacity="1">Expenses:Health:Life:GroupTerm…</text></g></g><path class="foreground" aria-hidden="true" d="" pointer-events="none" display="none"/></g><g transform="translate(0,104)"><path class="background" aria-hidden="true" d="M0,0h175.53125v11h-175.53125Z" pointer-events="none" opacity="1"/><g><g class="mark-symbol role-legend-symbol" pointer-events="none"><path transform="translate(6,6)" d="M-5,-5h10v10h-10Z" fill="#9d755d" stroke-width="1.5" opacity="1"/></g><g class="mark-text role-legend-label" pointer-events="none"><text text-anchor="start" transform="translate(16,9)" font-family="sans-serif" font-size="10px" fill="#000" opacity="1">Expenses:Health:Medical:Insurance</text></g></g><path class="foreground" aria-hidden="true" d="" pointer-events="none" display="none"/></g><g transform="translate(0,117)"><path class="background" aria-hidden="true" d="M0,0h175.53125v11h-175.53125Z" pointer-events="none" opacity="1"/><g><g class="mark-symbol role-legend-symbol" pointer-events="none"><path transform="translate(6,6)" d="M-5,-5h10v10h-10Z" fill="#bab0ac" stroke-width="1.5" opacity="1"/></g><g class="mark-text role-legend-label" pointer-events="none"><text text-anchor="start" transform="translate(16,9)" font-family="sans-serif" font-size="10px" fill="#000" opacity="1">Expenses:Health:Vision:Insurance</text></g></g><path class="foreground" aria-hidden="true" d="" pointer-events="none" display="none"/></g><g transform="translate(0,130)"><path class="background" aria-hidden="true" d="M0,0h175.53125v11h-175.53125Z" pointer-events="none" opacity="1"/><g><g class="mark-symbol role-legend-symbol" pointer-events="none"><path transform="translate(6,6)" d="M-5,-5h10v10h-10Z" fill="#4c78a8" stroke-width="1.5" opacity="1"/></g><g class="mark-text role-legend-label" pointer-events="none"><text text-anchor="start" transform="translate(16,9)" font-family="sans-serif" font-size="10px" fill="#000" opacity="1">Expenses:Home:Electricity</text></g></g><path class="foreground" aria-hidden="true" d="" pointer-events="none" display="none"/></g><g transform="translate(0,143)"><path class="background" aria-hidden="true" d="M0,0h175.53125v11h-175.53125Z" pointer-events="none" opacity="1"/><g><g class="mark-symbol role-legend-symbol" pointer-events="none"><path transform="translate(6,6)" d="M-5,-5h10v10h-10Z" fill="#f58518" stroke-width="1.5" opacity="1"/></g><g class="mark-text role-legend-label" pointer-events="none"><text text-anchor="start" transform="translate(16,9)" font-family="sans-serif" font-size="10px" fill="#000" opacity="1">Expenses:Home:Internet</text></g></g><path class="foreground" aria-hidden="true" d="" pointer-events="none" display="none"/></g><g transform="translate(0,156)"><path class="background" aria-hidden="true" d="M0,0h175.53125v11h-175.53125Z" pointer-events="none" opacity="1"/><g><g class="mark-symbol role-legend-symbol" pointer-events="none"><path transform="translate(6,6)" d="M-5,-5h10v10h-10Z" fill="#e45756" stroke-width="1.5" opacity="1"/></g><g class="mark-text role-legend-label" pointer-events="none"><text text-anchor="start" transform="translate(16,9)" font-family="sans-serif" font-size="10px" fill="#000" opacity="1">Expenses:Home:Rent</text></g></g><path class="foreground" aria-hidden="true" d="" pointer-events="none" display="none"/></g><g transform="translate(0,169)"><path class="background" aria-hidden="true" d="M0,0h175.53125v11h-175.53125Z" pointer-events="none" opacity="1"/><g><g class="mark-symbol role-legend-symbol" pointer-events="none"><path transform="translate(6,6)" d="M-5,-5h10v10h-10Z" fill="#72b7b2" stroke-width="1.5" opacity="1"/></g><g class="mark-text role-legend-label" pointer-events="none"><text text-anchor="start" transform="translate(16,9)" font-family="sans-serif" font-size="10px" fill="#000" opacity="1">Expenses:Taxes:Y2012:US</text></g></g><path class="foreground" aria-hidden="true" d="" pointer-events="none" display="none"/></g><g transform="translate(0,182)"><path class="background" aria-hidden="true" d="M0,0h175.53125v11h-175.53125Z" pointer-events="none" opacity="1"/><g><g class="mark-symbol role-legend-symbol" pointer-events="none"><path transform="translate(6,6)" d="M-5,-5h10v10h-10Z" fill="#54a24b" stroke-width="1.5" opacity="1"/></g><g class="mark-text role-legend-label" pointer-events="none"><text text-anchor="start" transform="translate(16,9)" font-family="sans-serif" font-size="10px" fill="#000" opacity="1">Expenses:Taxes:Y2013:US</text></g></g><path class="foreground" aria-hidden="true" d="" pointer-events="none" display="none"/></g><g transform="translate(0,195)"><path class="background" aria-hidden="true" d="M0,0h175.53125v11h-175.53125Z" pointer-events="none" opacity="1"/><g><g class="mark-symbol role-legend-symbol" pointer-events="none"><path transform="translate(6,6)" d="M-5,-5h10v10h-10Z" fill="#eeca3b" stroke-width="1.5" opacity="1"/></g><g class="mark-text role-legend-label" pointer-events="none"><text text-anchor="start" transform="translate(16,9)" font-family="sans-serif" font-size="10px" fill="#000" opacity="1">Expenses:Taxes:Y2014:US</text></g></g><path class="foreground" aria-hidden="true" d="" pointer-events="none" display="none"/></g><g transform="translate(0,208)"><path class="background" aria-hidden="true" d="M0,0h175.53125v11h-175.53125Z" pointer-events="none" opacity="1"/><g><g class="mark-symbol role-legend-symbol" pointer-events="none"><path transform="translate(6,6)" d="M-5,-5h10v10h-10Z" fill="#b279a2" stroke-width="1.5" opacity="1"/></g><g class="mark-text role-legend-label" pointer-events="none"><text text-anchor="start" transform="translate(16,9)" font-family="sans-serif" font-size="10px" fill="#000" opacity="1">Expenses:Transport:Tram</text></g></g><path class="foreground" aria-hidden="true" d="" pointer-events="none" display="none"/></g></g></g><path class="foreground" aria-hidden="true" d="" pointer-events="none" display="none"/></g></g><g class="mark-text role-legend-title" pointer-events="none"><text text-anchor="start" transform="translate(0,9)" font-family="sans-serif" font-size="11px" font-weight="bold" fill="#000" opacity="1">account</text></g></g><path class="foreground" aria-hidden="true" d="" pointer-events="none" display="none"/></g></g></g><path class="foreground" aria-hidden="true" d="" display="none"/></g></g></g><defs><clipPath id="clip1"><rect x="0" y="0" width="340" height="200"/></clipPath></defs></svg>